<?xml version="1.0" encoding="UTF-8" standalone="no"?>
<!-- Created with Inkscape (http://www.inkscape.org/) -->

<svg
   width="180mm"
   height="180mm"
   viewBox="0 0 180 180"
   version="1.1"
   id="svg1"
   inkscape:version="1.4 (e7c3feb100, 2024-10-09)"
   sodipodi:docname="clog1.svg"
   inkscape:export-filename="clog1.png"
   inkscape:export-xdpi="96"
   inkscape:export-ydpi="96"
   xmlns:inkscape="http://www.inkscape.org/namespaces/inkscape"
   xmlns:sodipodi="http://sodipodi.sourceforge.net/DTD/sodipodi-0.dtd"
   xmlns="http://www.w3.org/2000/svg"
   xmlns:svg="http://www.w3.org/2000/svg">
  <sodipodi:namedview
     id="namedview1"
     pagecolor="#ffffff"
     bordercolor="#000000"
     borderopacity="0.25"
     inkscape:showpageshadow="2"
     inkscape:pageopacity="0.0"
     inkscape:pagecheckerboard="0"
     inkscape:deskcolor="#d1d1d1"
     inkscape:document-units="mm"
     showguides="true"
     showgrid="false"
     inkscape:zoom="1.1506013"
     inkscape:cx="356.33542"
     inkscape:cy="471.92716"
     inkscape:window-width="1693"
     inkscape:window-height="1359"
     inkscape:window-x="0"
     inkscape:window-y="0"
     inkscape:window-maximized="1"
     inkscape:current-layer="layer2">
    <inkscape:grid
       id="grid6"
       units="mm"
       originx="0"
       originy="0"
       spacingx="0.99999998"
       spacingy="1"
       empcolor="#0099e5"
       empopacity="0.30196078"
       color="#0099e5"
       opacity="0.14901961"
       empspacing="5"
       enabled="true"
       visible="false" />
  </sodipodi:namedview>
  <defs
     id="defs1" />
  <g
     inkscape:label="Layer 1"
     inkscape:groupmode="layer"
     id="layer1">
    <g
       inkscape:groupmode="layer"
       id="layer2"
       inkscape:label="Layer 2">
      <rect
         style="fill:#f8b462;fill-opacity:1;stroke:#000000;stroke-width:6.78203;stroke-dasharray:none;stroke-opacity:1"
         id="rect18"
         width="162.23323"
         height="124.04321"
         x="8.8833809"
         y="30.162943" />
    </g>
    <path
       d="m 133.56491,46.460153 c -13.09272,0.259932 -28.25598,4.728572 -36.142488,9.167915 1.341301,0.417111 2.683828,0.84289 4.015768,1.344104 7.33243,-4.093591 15.8642,-6.527027 23.82439,-7.502384 2.06548,-0.253081 4.08996,-0.40996 6.04459,-0.47439 0.73293,-0.0242 1.45606,-0.03527 2.16834,-0.03307 4.98471,0.01537 9.41478,0.67029 12.78682,1.984375 2.56842,1.00091 4.62588,2.417897 5.61929,4.484481 1.00204,2.084534 0.64361,4.610011 -0.94361,7.031096 -3.07406,4.689021 -11.33853,10.431963 -25.13128,16.50493 0.26615,0.60937 0.52562,1.22561 0.76481,1.86345 0.55558,0.788 1.10447,1.63609 1.42317,2.73317 0.42667,1.46873 0.79998,2.99684 1.08417,4.61316 l 0.0858,0.49247 -3.01945,0.52917 -0.0858,-0.49248 c -0.41612,-2.36654 -1.0031,-4.5461 -1.72858,-6.57376 C 121.00067,72.824905 114.6439,66.907081 107.10038,62.860702 99.26987,58.660381 90.248834,56.620274 82.262624,55.226026 81.310887,55.05987 80.368163,54.894871 79.436439,54.735616 L 67.287827,67.817505 C 60.559498,75.05786 56.497,80.4256 47.658534,84.40616 l -0.03927,0.0176 -0.04082,0.0119 c -4.484746,1.15548 -11.323795,1.76818 -16.083773,4.43539 -3.690553,2.44237 -5.473416,5.247379 -6.482809,8.316289 -0.974692,2.963411 -1.207628,6.187261 -1.638659,9.480561 13.300982,6.53757 26.778039,13.99306 39.621354,16.44757 13.436034,2.56778 26.019152,0.0308 38.197143,-14.86731 l 0.0724,-0.0899 0.0858,-0.0822 0.002,-0.002 c 7.3373,-6.91657 15.0917,-12.899481 26.97872,-16.15818 l 0.008,-0.002 0.0372,-0.01 0.0351,-0.008 0.008,-0.002 c 10.4301,-2.31671 13.18842,-4.58856 20.18791,-6.9882 l 2.21485,-6.40064 0.0212,-0.0393 c 3.53081,-6.380172 5.2931,-11.601602 5.69319,-15.804719 0.4001,-4.203117 -0.543,-7.375652 -2.43913,-9.780798 -3.79218,-4.810199 -11.61059,-6.59723 -20.53104,-6.42028 z m 0.57826,5.587772 c -2.66719,-0.04692 -5.54366,0.101931 -8.50749,0.465088 -6.82579,0.836362 -14.09564,2.845082 -20.50004,6.013587 1.14812,0.515423 2.29557,1.032223 3.41168,1.630908 3.4049,1.826406 6.35263,4.163015 8.9488,6.976835 2.61852,2.471319 4.91881,5.377014 6.79184,8.759667 13.60406,-5.980547 20.77375,-11.218538 23.11332,-14.787206 0.6315,-0.963272 1.19806,-1.859229 1.52342,-2.617411 0.32537,-0.758183 0.38896,-1.323033 0.19327,-1.730127 -0.48843,-1.01607 -1.81473,-2.115958 -3.96875,-2.955376 -2.69328,-1.04958 -6.56073,-1.677765 -11.00605,-1.755965 z m 14.66422,36.970875 -5.1e-4,5.1e-4 c -5.66258,2.0912 -9.81233,4.26959 -19.50579,6.431649 -9.59097,2.62927 -16.15499,7.028011 -22.35419,12.488641 -0.65136,0.77076 -1.2987,1.5555 -1.9358,2.41691 -11.762845,19.09033 -26.154733,23.1281 -40.33345,20.41839 -13.485777,-2.57729 -27.595406,-12.71053 -40.750484,-19.43912 l 1.516703,8.24601 c 9.348938,6.04362 21.438601,13.0945 33.701303,16.41398 12.335046,3.33907 24.763228,2.92503 34.89451,-5.99601 4.726118,-4.2392 6.918788,-9.48814 12.705158,-15.44919 l 0.006,-0.006 0.004,-0.006 c 4.71756,-4.5717 10.04381,-7.27196 15.3572,-9.82421 l 0.17777,-0.0858 8.12302,2.53938 c 3.29396,0.59567 6.35699,-0.23387 9.44542,-1.58595 2.99041,-1.30917 5.99331,-3.09341 9.16791,-4.47105 z"
       id="path18" />
    <path
       d="m 133.55804,45.465786 -0.57826,0.01189 0.006,0.04082 c -13.6906,0.389676 -29.39592,5.07217 -37.133128,9.773563 l -0.380338,0.231511 c 2.009225,0.578891 4.022267,1.235484 6.010996,1.992126 7.30601,-4.122804 15.87412,-6.566744 23.85178,-7.544242 2.05098,-0.251305 4.06076,-0.406326 6.00015,-0.470256 0.72727,-0.02397 1.44434,-0.03527 2.15025,-0.03307 4.94143,0.01524 9.32179,0.670342 12.6075,1.950786 2.50341,0.975575 4.43505,2.33193 5.34955,4.234367 0.91451,1.902436 0.61014,4.22241 -0.91002,6.541202 -3.01926,4.605434 -10.65953,9.879335 -25.00261,16.092559 0.10228,0.22215 0.19016,0.45975 0.28887,0.68574 13.79275,-6.072967 22.05722,-11.815909 25.13128,-16.50493 1.58722,-2.421085 1.94565,-4.946562 0.94361,-7.031096 -0.99341,-2.066584 -3.05087,-3.483571 -5.61929,-4.484481 -3.37204,-1.314085 -7.80211,-1.969002 -12.78682,-1.984375 -0.71228,-0.0022 -1.43541,0.0089 -2.16834,0.03307 -1.95463,0.06443 -3.97911,0.221309 -6.04459,0.47439 -7.96019,0.975357 -16.49196,3.408793 -23.82439,7.502384 -1.33194,-0.501214 -2.674471,-0.926993 -4.015772,-1.344104 7.886512,-4.439343 23.049772,-8.907983 36.142492,-9.167915 h 5.2e-4 c 8.92045,-0.17695 16.73886,1.610081 20.53104,6.42028 1.89613,2.405146 2.83923,5.577681 2.43913,9.780798 -0.40009,4.203117 -2.16238,9.424547 -5.69319,15.804719 l -0.0212,0.0393 -2.21485,6.40064 c -6.99949,2.39964 -9.75781,4.67149 -20.18791,6.9882 l -0.008,0.002 -0.0351,0.008 -0.0372,0.01 -0.008,0.002 c -11.88702,3.258699 -19.64142,9.241608 -26.97872,16.158178 l -0.002,0.002 -0.0858,0.0822 -0.0724,0.0899 c -12.177993,14.89811 -24.761111,17.43509 -38.197145,14.86731 -12.843315,-2.45451 -26.320372,-9.91 -39.621354,-16.44757 0.431031,-3.2933 0.663967,-6.51715 1.638659,-9.480559 1.009393,-3.06891 2.792256,-5.873919 6.482809,-8.316289 4.759978,-2.66721 11.599027,-3.27991 16.083773,-4.43539 l 0.04082,-0.0119 0.03927,-0.0176 c 8.838466,-3.98056 12.900964,-9.3483 19.629293,-16.588655 l 12.14928,-13.082099 c 0.931724,0.159255 1.874448,0.324254 2.826185,0.49041 7.98621,1.394248 17.007246,3.434355 24.83776,7.634676 7.54352,4.046379 13.90029,9.964203 17.23047,19.271688 0.72548,2.02766 1.31246,4.20722 1.72858,6.57376 l 0.0858,0.49248 3.01945,-0.52917 -0.0858,-0.49247 c -0.28419,-1.61632 -0.6575,-3.14443 -1.08417,-4.61316 -0.3187,-1.09708 -0.86759,-1.94517 -1.42317,-2.73317 0.85785,2.28762 1.54407,4.75459 2.01486,7.43211 l -2.03501,0.3576 C 124.20943,75.237062 116.62778,67.402246 107.34879,62.424957 98.211663,57.523762 87.447824,55.508353 78.677673,54.100401 L 66.567818,67.143532 c -6.749973,7.26365 -10.663656,12.45064 -19.275309,16.33802 -4.330954,1.10846 -11.252578,1.69811 -16.293063,4.53099 l -0.01602,0.008 -0.0155,0.01 c -3.873291,2.55909 -5.828035,5.61293 -6.892603,8.849589 -1.054947,3.207399 -1.264504,6.583739 -1.713074,9.926009 13.686279,6.66209 27.170327,14.24694 40.551014,16.80414 13.554396,2.5904 26.572255,-0.51976 38.840517,-15.52825 5.0961,-5.4806 14.94132,-12.495449 26.72188,-15.678628 l 0.0336,-0.008 0.031,-0.008 c 9.96059,-2.21243 14.77922,-4.66331 20.49952,-6.57531 0.0487,-0.0166 0.0883,-0.033 0.13746,-0.0496 l 0.23255,-0.078 2.34559,-6.78098 c 3.55309,-6.432641 5.37117,-11.755517 5.78879,-16.142688 0.41887,-4.400354 -0.58684,-7.877474 -2.64996,-10.49445 -4.12626,-5.233951 -12.27277,-6.98048 -21.33617,-6.800618 z m 0.60617,6.088517 c -2.69203,-0.04736 -5.59099,0.102282 -8.57726,0.468188 -7.21066,0.883519 -14.93489,3.019528 -21.62142,6.497795 1.47671,0.633999 2.93503,1.320892 4.35788,2.08411 3.29425,1.767051 6.41012,3.916653 9.18496,6.535519 -2.59617,-2.81382 -5.5439,-5.150429 -8.9488,-6.976835 -1.11611,-0.598685 -2.26356,-1.115485 -3.41168,-1.630908 6.4044,-3.168505 13.67425,-5.177225 20.50004,-6.013587 2.96383,-0.363157 5.8403,-0.512011 8.50749,-0.465088 4.44532,0.0782 8.31277,0.706385 11.00605,1.755965 2.15402,0.839418 3.48032,1.939306 3.96875,2.955376 0.19569,0.407094 0.1321,0.971944 -0.19327,1.730127 -0.32536,0.758182 -0.89192,1.654139 -1.52342,2.617411 -2.33957,3.568668 -9.50926,8.806659 -23.11332,14.787206 0.10098,0.18238 0.21528,0.3496 0.31367,0.53486 12.07107,-5.222834 19.19431,-9.853625 22.63842,-13.48962 0.37196,-0.438002 0.72733,-0.871761 0.99735,-1.283642 0.59629,-0.909564 1.1414,-1.774782 1.5198,-2.604493 0.26747,-0.962762 0.16621,-1.771834 -0.1881,-2.50889 -0.57564,-1.197482 -2.01417,-2.338152 -4.2385,-3.204973 -2.7804,-1.083527 -6.69194,-1.709593 -11.17864,-1.788521 z m 15.6378,36.571929 c -6.35501,2.2369 -10.29239,4.54672 -20.62096,6.847639 -10.11298,2.77237 -16.52281,6.227559 -22.2219,12.971299 6.1992,-5.46063 12.76322,-9.85937 22.35419,-12.488639 9.69346,-2.162059 13.84321,-4.340449 19.50579,-6.431649 l 5.1e-4,-5.1e-4 0.21859,12.091758 c -3.1746,1.37764 -6.1775,3.16188 -9.16791,4.47105 -3.08843,1.35208 -6.15146,2.18162 -9.44542,1.58595 l -8.12302,-2.53938 -0.17777,0.0858 c -5.31339,2.55225 -10.63964,5.25251 -15.3572,9.82421 l -0.004,0.006 -0.006,0.006 c -5.78637,5.96105 -7.979044,11.20999 -12.705162,15.44919 -10.131282,8.92104 -22.559464,9.33508 -34.89451,5.99601 -12.262522,-3.3191 -24.352185,-10.36998 -33.701123,-16.4136 l -1.516703,-8.24601 c -0.373232,-0.1909 -0.749739,-0.39316 -1.121378,-0.57826 l 1.734261,9.43508 0.179317,0.11731 c 9.40347,6.08808 21.642536,13.2626 34.164323,16.65221 12.521787,3.38962 25.396252,2.96819 35.822103,-6.21461 v -0.002 l 0.0021,-0.002 c 4.910713,-4.40478 7.084212,-9.65176 12.743922,-15.48639 4.53954,-4.39919 9.68326,-7.03365 14.92415,-9.55446 l 7.81813,2.44326 0.0315,0.006 c 3.56608,0.64794 6.85853,-0.26404 10.03505,-1.65468 3.17653,-1.39065 6.26206,-3.26166 9.4666,-4.61728 l 0.31058,-0.13075 z"
       id="path17" />
    <path
       d=""
       style="baseline-shift:baseline;display:inline;overflow:visible;vector-effect:none;fill:#ffffff;enable-background:accumulate;stop-color:#000000;stop-opacity:1"
       id="path10" />
    <path
       d="m 65.152419,73.865252 -0.326078,2.039152 c 8.841941,1.410934 19.81846,3.421165 29.09745,8.398454 9.278989,4.977289 16.860639,12.812105 19.214849,26.200992 l 2.03501,-0.3576 c -0.65074,-3.70095 -1.70129,-7.0118 -3.06854,-9.9813 -0.10013,0.0434 -0.18395,0.0847 -0.28474,0.12815 l -0.81855,-1.896523 c 0.0663,-0.0286 0.12107,-0.0557 0.18706,-0.0842 -3.85741,-7.262418 -9.71996,-12.305602 -16.290469,-15.83005 -1.42285,-0.763218 -2.88117,-1.450111 -4.35788,-2.08411 -0.007,0.0034 -0.013,0.0069 -0.0196,0.01033 -0.69122,0.359949 -1.38301,0.719879 -2.05001,1.108976 l -1.04128,-1.783353 c 0.2051,-0.119647 0.42171,-0.22363 0.6289,-0.340548 -7.839436,-2.982618 -16.061162,-4.436079 -22.906092,-5.528345 z"
       style="baseline-shift:baseline;display:inline;overflow:visible;vector-effect:none;fill:none;enable-background:accumulate;stop-color:#000000;stop-opacity:1"
       id="path16" />
    <path
       d="m 97.079627,77.71115 c -0.70591,-0.0022 -1.42298,0.0091 -2.15025,0.03307 -1.93939,0.06393 -3.94917,0.218951 -6.00015,0.470256 -8.20389,1.005219 -17.04326,3.546112 -24.48068,7.88479 l 1.04128,1.783353 c 7.12361,-4.15562 15.72768,-6.641357 23.69106,-7.617106 7.96338,-0.975749 15.307243,-0.41331 19.755893,1.320333 2.22433,0.866821 3.66286,2.007491 4.2385,3.204973 0.57563,1.197482 0.4919,2.581235 -0.77514,4.513936 -2.5341,3.865402 -9.99484,9.253184 -24.379383,15.456945 l 0.81855,1.89652 c 14.537783,-6.26985 22.247013,-11.583133 25.287343,-16.220718 1.52016,-2.318792 1.82453,-4.638766 0.91002,-6.541202 -0.9145,-1.902437 -2.84614,-3.258792 -5.34955,-4.234367 -3.28571,-1.280444 -7.66607,-1.935543 -12.607493,-1.950786 z"
       style="baseline-shift:baseline;display:inline;overflow:visible;vector-effect:none;fill:none;enable-background:accumulate;stop-color:#000000;stop-opacity:1"
       id="path15" />
    <path
       d="m 154.06068,69.089413 c -6.39039,1.96579 -11.13376,4.64582 -21.90512,7.03833 l -0.031,0.008 -0.0336,0.008 C 120.3104,79.326922 110.46518,86.341772 105.36908,91.822372 93.100821,106.83086 80.082962,109.94102 66.528566,107.35062 52.974171,104.76022 39.315659,97.006112 25.446319,90.282932 l -0.02584,3.69796 c 13.750514,6.665578 28.67072,17.823368 42.88472,20.539828 14.178717,2.70971 28.570605,-1.32806 40.333451,-20.418388 6.21146,-8.39839 12.88889,-12.29898 24.1577,-15.38821 10.95945,-2.441469 14.68735,-4.894359 21.78316,-7.257949 z"
       style="baseline-shift:baseline;display:inline;overflow:visible;vector-effect:none;fill:none;enable-background:accumulate;stop-color:#000000;stop-opacity:1"
       id="path14" />
  </g>
</svg>
